<svg width="128" height="128" viewBox="0 0 128 128" xmlns="http://www.w3.org/2000/svg">
  <defs>
    <linearGradient id="grad" x1="0%" y1="0%" x2="100%" y2="100%">
      <stop offset="0%" style="stop-color:#00b020;stop-opacity:1" />
      <stop offset="100%" style="stop-color:#00901a;stop-opacity:1" />
    </linearGradient>
  </defs>
  
  <!-- Background circle -->
  <circle cx="64" cy="64" r="60" fill="url(#grad)" stroke="#ffffff" stroke-width="4"/>
  
  <!-- Film strip icon -->
  <rect x="32" y="40" width="64" height="48" rx="4" fill="none" stroke="#ffffff" stroke-width="3"/>
  
  <!-- Film perforations -->
  <rect x="36" y="44" width="4" height="8" fill="#ffffff"/>
  <rect x="44" y="44" width="4" height="8" fill="#ffffff"/>
  <rect x="52" y="44" width="4" height="8" fill="#ffffff"/>
  <rect x="60" y="44" width="4" height="8" fill="#ffffff"/>
  <rect x="68" y="44" width="4" height="8" fill="#ffffff"/>
  <rect x="76" y="44" width="4" height="8" fill="#ffffff"/>
  <rect x="84" y="44" width="4" height="8" fill="#ffffff"/>
  
  <rect x="36" y="76" width="4" height="8" fill="#ffffff"/>
  <rect x="44" y="76" width="4" height="8" fill="#ffffff"/>
  <rect x="52" y="76" width="4" height="8" fill="#ffffff"/>
  <rect x="60" y="76" width="4" height="8" fill="#ffffff"/>
  <rect x="68" y="76" width="4" height="8" fill="#ffffff"/>
  <rect x="76" y="76" width="4" height="8" fill="#ffffff"/>
  <rect x="84" y="76" width="4" height="8" fill="#ffffff"/>
  
  <!-- HFF text -->
  <text x="64" y="105" font-family="Arial, sans-serif" font-size="16" font-weight="bold" text-anchor="middle" fill="#ffffff">HFF</text>
</svg> 